<svg width="65" height="65" viewBox="0 0 65 65" fill="none" xmlns="http://www.w3.org/2000/svg">
<path fill-rule="evenodd" clip-rule="evenodd" d="M19.1011 0.195C22.5668 0.0354545 23.6718 0 32.5 0C41.3282 0 42.4332 0.038409 45.8959 0.195C49.3586 0.351591 51.7223 0.904091 53.7905 1.70477C55.9561 2.52318 57.9209 3.8025 59.5459 5.45705C61.2005 7.07909 62.4768 9.04091 63.2923 11.2095C64.0959 13.2777 64.6455 15.6414 64.805 19.0982C64.9645 22.5698 65 23.6748 65 32.5C65 41.3282 64.9616 42.4332 64.805 45.8989C64.6484 49.3557 64.0959 51.7193 63.2923 53.7875C62.4768 55.9564 61.1983 57.9215 59.5459 59.5459C57.9209 61.2005 55.9561 62.4768 53.7905 63.2923C51.7223 64.0959 49.3586 64.6455 45.9018 64.805C42.4332 64.9645 41.3282 65 32.5 65C23.6718 65 22.5668 64.9616 19.1011 64.805C15.6443 64.6484 13.2807 64.0959 11.2125 63.2923C9.04363 62.4767 7.07856 61.1983 5.45409 59.5459C3.80067 57.9229 2.52116 55.9588 1.70477 53.7905C0.904091 51.7223 0.354545 49.3586 0.195 45.9018C0.0354545 42.4302 0 41.3252 0 32.5C0 23.6718 0.038409 22.5668 0.195 19.1041C0.351591 15.6414 0.904091 13.2777 1.70477 11.2095C2.52236 9.04115 3.80285 7.07706 5.45705 5.45409C7.07921 3.80103 9.0423 2.52154 11.2095 1.70477C13.2777 0.904091 15.6414 0.354545 19.0982 0.195H19.1011ZM45.633 6.045C42.2057 5.88841 41.1775 5.85591 32.5 5.85591C23.8225 5.85591 22.7943 5.88841 19.367 6.045C16.1968 6.18977 14.4773 6.71864 13.3309 7.16477C11.8152 7.75568 10.7309 8.45591 9.59341 9.59341C8.51513 10.6424 7.68531 11.9195 7.16477 13.3309C6.71864 14.4773 6.18977 16.1968 6.045 19.367C5.88841 22.7943 5.85591 23.8225 5.85591 32.5C5.85591 41.1775 5.88841 42.2057 6.045 45.633C6.18977 48.8032 6.71864 50.5227 7.16477 51.6691C7.68477 53.0784 8.515 54.3577 9.59341 55.4066C10.6423 56.485 11.9216 57.3152 13.3309 57.8352C14.4773 58.2814 16.1968 58.8102 19.367 58.955C22.7943 59.1116 23.8195 59.1441 32.5 59.1441C41.1805 59.1441 42.2057 59.1116 45.633 58.955C48.8032 58.8102 50.5227 58.2814 51.6691 57.8352C53.1848 57.2443 54.2691 56.5441 55.4066 55.4066C56.485 54.3577 57.3152 53.0784 57.8352 51.6691C58.2814 50.5227 58.8102 48.8032 58.955 45.633C59.1116 42.2057 59.1441 41.1775 59.1441 32.5C59.1441 23.8225 59.1116 22.7943 58.955 19.367C58.8102 16.1968 58.2814 14.4773 57.8352 13.3309C57.2443 11.8152 56.5441 10.7309 55.4066 9.59341C54.3575 8.51521 53.0805 7.6854 51.6691 7.16477C50.5227 6.71864 48.8032 6.18977 45.633 6.045ZM28.3489 42.5189C30.6672 43.4839 33.2486 43.6142 35.6523 42.8874C38.056 42.1606 40.1328 40.6218 41.5279 38.5339C42.9231 36.446 43.5502 33.9385 43.302 31.4396C43.0537 28.9408 41.9457 26.6056 40.167 24.833C39.0332 23.6998 37.6622 22.8322 36.1528 22.2925C34.6434 21.7528 33.0331 21.5545 31.4378 21.7118C29.8426 21.8692 28.302 22.3783 26.9271 23.2024C25.5523 24.0266 24.3772 25.1454 23.4866 26.4782C22.596 27.811 22.0119 29.3247 21.7765 30.9103C21.5411 32.496 21.6602 34.114 22.1252 35.6481C22.5902 37.1822 23.3896 38.5941 24.4658 39.7821C25.5419 40.9702 26.8681 41.9049 28.3489 42.5189ZM20.6877 20.6877C22.2389 19.1365 24.0805 17.906 26.1072 17.0665C28.134 16.227 30.3063 15.7949 32.5 15.7949C34.6937 15.7949 36.866 16.227 38.8928 17.0665C40.9195 17.906 42.7611 19.1365 44.3123 20.6877C45.8635 22.2389 47.094 24.0805 47.9335 26.1072C48.773 28.134 49.2051 30.3063 49.2051 32.5C49.2051 34.6937 48.773 36.866 47.9335 38.8928C47.094 40.9195 45.8635 42.7611 44.3123 44.3123C41.1795 47.4451 36.9305 49.2051 32.5 49.2051C28.0695 49.2051 23.8205 47.4451 20.6877 44.3123C17.5549 41.1795 15.7949 36.9305 15.7949 32.5C15.7949 28.0695 17.5549 23.8205 20.6877 20.6877ZM52.91 18.2827C53.2944 17.9201 53.6021 17.4841 53.815 17.0004C54.0278 16.5167 54.1415 15.9952 54.1492 15.4668C54.1569 14.9385 54.0585 14.4139 53.8598 13.9242C53.6612 13.4345 53.3663 12.9897 52.9926 12.616C52.6189 12.2424 52.1741 11.9475 51.6844 11.7488C51.1947 11.5501 50.6702 11.4517 50.1418 11.4594C49.6134 11.4672 49.0919 11.5808 48.6083 11.7936C48.1246 12.0065 47.6885 12.3142 47.3259 12.6986C46.6207 13.4462 46.2346 14.4392 46.2496 15.4668C46.2646 16.4945 46.6794 17.4758 47.4061 18.2025C48.1329 18.9292 49.1142 19.3441 50.1418 19.3591C51.1694 19.374 52.1624 18.9879 52.91 18.2827Z" fill="black"/>
</svg>
