<svg width="65" height="47" viewBox="0 0 65 47" fill="none" xmlns="http://www.w3.org/2000/svg">
<path d="M60.3571 0H4.64286C3.41149 0 2.23057 0.495177 1.35986 1.3766C0.489157 2.25802 0 3.45348 0 4.7V42.3C0 43.5465 0.489157 44.742 1.35986 45.6234C2.23057 46.5048 3.41149 47 4.64286 47H60.3571C61.5885 47 62.7694 46.5048 63.6401 45.6234C64.5108 44.742 65 43.5465 65 42.3V4.7C65 3.45348 64.5108 2.25802 63.6401 1.3766C62.7694 0.495177 61.5885 0 60.3571 0ZM55.25 4.7L32.5 20.633L9.75 4.7H55.25ZM4.64286 42.3V6.8385L31.1768 25.427C31.5654 25.6999 32.0271 25.8461 32.5 25.8461C32.9729 25.8461 33.4346 25.6999 33.8232 25.427L60.3571 6.8385V42.3H4.64286Z" fill="black"/>
</svg>
