<svg width="65" height="65" viewBox="0 0 65 65" fill="none" xmlns="http://www.w3.org/2000/svg">
<path d="M14.8447 5.39522C14.6049 5.08672 14.3022 4.83278 13.9566 4.65026C13.6111 4.46774 13.2307 4.36083 12.8407 4.33662C12.4507 4.31242 12.0601 4.37147 11.6946 4.50986C11.3292 4.64825 10.9974 4.86281 10.7213 5.13928L6.52064 9.34397C4.55845 11.3102 3.83533 14.093 4.69251 16.5346C8.25021 26.6404 14.0375 35.8156 21.625 43.3796C29.1891 50.967 38.3643 56.7543 48.47 60.3121C50.9116 61.1693 53.6944 60.4462 55.6606 58.484L59.8613 54.2834C60.1377 54.0072 60.3523 53.6754 60.4907 53.31C60.6291 52.9446 60.6881 52.5539 60.6639 52.1639C60.6397 51.7739 60.5328 51.3935 60.3503 51.048C60.1678 50.7025 59.9138 50.3997 59.6053 50.1599L50.2331 42.8718C49.9035 42.6162 49.5202 42.4387 49.112 42.3529C48.7039 42.267 48.2815 42.275 47.8769 42.3762L38.98 44.5984C37.7925 44.8952 36.5483 44.8794 35.3686 44.5526C34.189 44.2259 33.114 43.5992 32.2485 42.7337L22.271 32.7521C21.4047 31.8869 20.7773 30.8122 20.4498 29.6325C20.1223 28.4528 20.1059 27.2084 20.4022 26.0205L22.6285 17.1237C22.7296 16.719 22.7376 16.2967 22.6517 15.8885C22.5659 15.4803 22.3885 15.097 22.1328 14.7674L14.8447 5.39522ZM7.65408 2.07616C8.36499 1.36502 9.21906 0.813252 10.1596 0.457502C11.1001 0.101752 12.1055 -0.0498413 13.1091 0.0127873C14.1127 0.075416 15.0915 0.350834 15.9805 0.820752C16.8695 1.29067 17.6483 1.94434 18.2653 2.73835L25.5535 12.1065C26.89 13.8249 27.3613 16.0633 26.8331 18.1758L24.611 27.0727C24.4961 27.5335 24.5023 28.0162 24.629 28.4739C24.7557 28.9316 24.9986 29.3488 25.3341 29.6849L35.3156 39.6665C35.6522 40.0027 36.07 40.246 36.5285 40.3727C36.987 40.4994 37.4705 40.5052 37.9319 40.3896L46.8247 38.1674C47.8672 37.9068 48.9553 37.8865 50.0068 38.1082C51.0583 38.3299 52.0456 38.7877 52.8941 39.4471L62.2622 46.7352C65.63 49.3555 65.9388 54.3321 62.9244 57.3424L58.7238 61.543C55.7175 64.5493 51.2244 65.8696 47.036 64.3949C36.3158 60.623 26.5824 54.4858 18.5578 46.4387C10.5112 38.4153 4.37405 28.6833 0.601576 17.9646C-0.869049 13.7802 0.451264 9.28304 3.45751 6.27678L7.65814 2.07616H7.65408Z" fill="black"/>
</svg>
